<mxfile host="65bd71144e">
    <diagram name="Page-1" id="SDWG9DKmseKplDPkIkF8">
        <mxGraphModel dx="1094" dy="1867" grid="1" gridSize="10" guides="1" tooltips="1" connect="1" arrows="1" fold="1" page="1" pageScale="1" pageWidth="850" pageHeight="1100" math="0" shadow="0">
            <root>
                <mxCell id="0"/>
                <mxCell id="1" parent="0"/>
                <mxCell id="bwSSeVmjy1r_vaOKLsch-12" value="" style="rounded=0;whiteSpace=wrap;html=1;strokeColor=none;" parent="1" vertex="1">
                    <mxGeometry x="10" y="-10" width="1150" height="740" as="geometry"/>
                </mxCell>
                <mxCell id="bwSSeVmjy1r_vaOKLsch-1" value="AbstractFactory" style="swimlane;fontStyle=1;align=center;verticalAlign=top;childLayout=stackLayout;horizontal=1;startSize=26;horizontalStack=0;resizeParent=1;resizeParentMax=0;resizeLast=0;collapsible=1;marginBottom=0;whiteSpace=wrap;html=1;" parent="1" vertex="1">
                    <mxGeometry x="130" y="40" width="160" height="80" as="geometry"/>
                </mxCell>
                <mxCell id="bwSSeVmjy1r_vaOKLsch-4" value="+ CreateProductA()&lt;br style=&quot;border-color: var(--border-color);&quot;&gt;+ CreateProductB()" style="text;strokeColor=none;fillColor=none;align=left;verticalAlign=top;spacingLeft=4;spacingRight=4;overflow=hidden;rotatable=0;points=[[0,0.5],[1,0.5]];portConstraint=eastwest;whiteSpace=wrap;html=1;" parent="bwSSeVmjy1r_vaOKLsch-1" vertex="1">
                    <mxGeometry y="26" width="160" height="54" as="geometry"/>
                </mxCell>
                <mxCell id="bwSSeVmjy1r_vaOKLsch-10" style="edgeStyle=orthogonalEdgeStyle;rounded=0;orthogonalLoop=1;jettySize=auto;html=1;endArrow=block;endFill=0;entryX=0.181;entryY=1;entryDx=0;entryDy=0;entryPerimeter=0;" parent="1" source="bwSSeVmjy1r_vaOKLsch-5" target="bwSSeVmjy1r_vaOKLsch-4" edge="1">
                    <mxGeometry relative="1" as="geometry"/>
                </mxCell>
                <mxCell id="bwSSeVmjy1r_vaOKLsch-5" value="ConcreateFactory2" style="swimlane;fontStyle=1;align=center;verticalAlign=top;childLayout=stackLayout;horizontal=1;startSize=26;horizontalStack=0;resizeParent=1;resizeParentMax=0;resizeLast=0;collapsible=1;marginBottom=0;whiteSpace=wrap;html=1;" parent="1" vertex="1">
                    <mxGeometry x="40" y="280" width="160" height="70" as="geometry"/>
                </mxCell>
                <mxCell id="bwSSeVmjy1r_vaOKLsch-8" value="+ CreateProductA()&lt;br style=&quot;border-color: var(--border-color);&quot;&gt;+ CreateProductB()" style="text;strokeColor=none;fillColor=none;align=left;verticalAlign=top;spacingLeft=4;spacingRight=4;overflow=hidden;rotatable=0;points=[[0,0.5],[1,0.5]];portConstraint=eastwest;whiteSpace=wrap;html=1;" parent="bwSSeVmjy1r_vaOKLsch-5" vertex="1">
                    <mxGeometry y="26" width="160" height="44" as="geometry"/>
                </mxCell>
                <mxCell id="2" value="ConcreateFactory1" style="swimlane;fontStyle=1;align=center;verticalAlign=top;childLayout=stackLayout;horizontal=1;startSize=26;horizontalStack=0;resizeParent=1;resizeParentMax=0;resizeLast=0;collapsible=1;marginBottom=0;whiteSpace=wrap;html=1;" vertex="1" parent="1">
                    <mxGeometry x="240" y="280" width="160" height="70" as="geometry"/>
                </mxCell>
                <mxCell id="3" value="+ CreateProductA()&lt;br style=&quot;border-color: var(--border-color);&quot;&gt;+ CreateProductB()" style="text;strokeColor=none;fillColor=none;align=left;verticalAlign=top;spacingLeft=4;spacingRight=4;overflow=hidden;rotatable=0;points=[[0,0.5],[1,0.5]];portConstraint=eastwest;whiteSpace=wrap;html=1;" vertex="1" parent="2">
                    <mxGeometry y="26" width="160" height="44" as="geometry"/>
                </mxCell>
                <mxCell id="4" style="edgeStyle=orthogonalEdgeStyle;rounded=0;orthogonalLoop=1;jettySize=auto;html=1;endArrow=block;endFill=0;exitX=0.5;exitY=0;exitDx=0;exitDy=0;entryX=0.819;entryY=1;entryDx=0;entryDy=0;entryPerimeter=0;" edge="1" parent="1" source="2" target="bwSSeVmjy1r_vaOKLsch-4">
                    <mxGeometry relative="1" as="geometry">
                        <mxPoint x="130" y="290" as="sourcePoint"/>
                        <mxPoint x="230" y="200" as="targetPoint"/>
                    </mxGeometry>
                </mxCell>
                <mxCell id="5" value="AbstractProductA" style="swimlane;fontStyle=1;align=center;verticalAlign=top;childLayout=stackLayout;horizontal=1;startSize=26;horizontalStack=0;resizeParent=1;resizeParentMax=0;resizeLast=0;collapsible=1;marginBottom=0;whiteSpace=wrap;html=1;" vertex="1" parent="1">
                    <mxGeometry x="670" y="115" width="160" height="70" as="geometry"/>
                </mxCell>
                <mxCell id="7" value="ProductA1" style="swimlane;fontStyle=1;align=center;verticalAlign=top;childLayout=stackLayout;horizontal=1;startSize=26;horizontalStack=0;resizeParent=1;resizeParentMax=0;resizeLast=0;collapsible=1;marginBottom=0;whiteSpace=wrap;html=1;" vertex="1" parent="1">
                    <mxGeometry x="540" y="220" width="160" height="70" as="geometry"/>
                </mxCell>
                <mxCell id="8" value="ProductA2" style="swimlane;fontStyle=1;align=center;verticalAlign=top;childLayout=stackLayout;horizontal=1;startSize=26;horizontalStack=0;resizeParent=1;resizeParentMax=0;resizeLast=0;collapsible=1;marginBottom=0;whiteSpace=wrap;html=1;" vertex="1" parent="1">
                    <mxGeometry x="760" y="220" width="160" height="70" as="geometry"/>
                </mxCell>
                <mxCell id="9" value="AbstractProductB" style="swimlane;fontStyle=1;align=center;verticalAlign=top;childLayout=stackLayout;horizontal=1;startSize=26;horizontalStack=0;resizeParent=1;resizeParentMax=0;resizeLast=0;collapsible=1;marginBottom=0;whiteSpace=wrap;html=1;" vertex="1" parent="1">
                    <mxGeometry x="570" y="380" width="160" height="70" as="geometry"/>
                </mxCell>
                <mxCell id="10" value="ProductB1" style="swimlane;fontStyle=1;align=center;verticalAlign=top;childLayout=stackLayout;horizontal=1;startSize=26;horizontalStack=0;resizeParent=1;resizeParentMax=0;resizeLast=0;collapsible=1;marginBottom=0;whiteSpace=wrap;html=1;" vertex="1" parent="1">
                    <mxGeometry x="440" y="530" width="160" height="70" as="geometry"/>
                </mxCell>
                <mxCell id="11" value="ProductB2" style="swimlane;fontStyle=1;align=center;verticalAlign=top;childLayout=stackLayout;horizontal=1;startSize=26;horizontalStack=0;resizeParent=1;resizeParentMax=0;resizeLast=0;collapsible=1;marginBottom=0;whiteSpace=wrap;html=1;" vertex="1" parent="1">
                    <mxGeometry x="670" y="530" width="160" height="70" as="geometry"/>
                </mxCell>
                <mxCell id="13" style="edgeStyle=none;html=1;exitX=0;exitY=0.5;exitDx=0;exitDy=0;" edge="1" parent="1" source="12" target="bwSSeVmjy1r_vaOKLsch-1">
                    <mxGeometry relative="1" as="geometry"/>
                </mxCell>
                <mxCell id="14" style="edgeStyle=elbowEdgeStyle;html=1;exitX=0.5;exitY=1;exitDx=0;exitDy=0;strokeColor=default;jumpStyle=none;elbow=vertical;entryX=1;entryY=0.25;entryDx=0;entryDy=0;" edge="1" parent="1" source="12" target="9">
                    <mxGeometry relative="1" as="geometry">
                        <mxPoint x="760" y="415" as="targetPoint"/>
                        <Array as="points">
                            <mxPoint x="960" y="398"/>
                            <mxPoint x="920" y="410"/>
                        </Array>
                    </mxGeometry>
                </mxCell>
                <mxCell id="15" style="edgeStyle=elbowEdgeStyle;html=1;exitX=0.5;exitY=1;exitDx=0;exitDy=0;entryX=1;entryY=0.5;entryDx=0;entryDy=0;" edge="1" parent="1" source="12" target="5">
                    <mxGeometry relative="1" as="geometry">
                        <Array as="points">
                            <mxPoint x="1060" y="170"/>
                        </Array>
                    </mxGeometry>
                </mxCell>
                <mxCell id="12" value="Client" style="swimlane;fontStyle=1;align=center;verticalAlign=top;childLayout=stackLayout;horizontal=1;startSize=26;horizontalStack=0;resizeParent=1;resizeParentMax=0;resizeLast=0;collapsible=1;marginBottom=0;whiteSpace=wrap;html=1;" vertex="1" parent="1">
                    <mxGeometry x="980" y="45" width="160" height="70" as="geometry"/>
                </mxCell>
                <mxCell id="17" style="edgeStyle=orthogonalEdgeStyle;rounded=0;orthogonalLoop=1;jettySize=auto;html=1;endArrow=block;endFill=0;entryX=0.25;entryY=1;entryDx=0;entryDy=0;exitX=0.5;exitY=0;exitDx=0;exitDy=0;" edge="1" parent="1" source="7" target="5">
                    <mxGeometry relative="1" as="geometry">
                        <mxPoint x="130" y="290" as="sourcePoint"/>
                        <mxPoint x="168.96000000000004" y="130" as="targetPoint"/>
                    </mxGeometry>
                </mxCell>
                <mxCell id="18" style="edgeStyle=orthogonalEdgeStyle;rounded=0;orthogonalLoop=1;jettySize=auto;html=1;endArrow=block;endFill=0;entryX=0.75;entryY=1;entryDx=0;entryDy=0;exitX=0.5;exitY=0;exitDx=0;exitDy=0;" edge="1" parent="1" source="8" target="5">
                    <mxGeometry relative="1" as="geometry">
                        <mxPoint x="630" y="230" as="sourcePoint"/>
                        <mxPoint x="720" y="195" as="targetPoint"/>
                    </mxGeometry>
                </mxCell>
                <mxCell id="19" style="edgeStyle=orthogonalEdgeStyle;rounded=0;orthogonalLoop=1;jettySize=auto;html=1;endArrow=block;endFill=0;entryX=0.25;entryY=1;entryDx=0;entryDy=0;exitX=0.5;exitY=0;exitDx=0;exitDy=0;" edge="1" parent="1" source="10" target="9">
                    <mxGeometry relative="1" as="geometry">
                        <mxPoint x="630" y="230" as="sourcePoint"/>
                        <mxPoint x="720" y="195" as="targetPoint"/>
                    </mxGeometry>
                </mxCell>
                <mxCell id="20" style="edgeStyle=orthogonalEdgeStyle;rounded=0;orthogonalLoop=1;jettySize=auto;html=1;endArrow=block;endFill=0;entryX=0.75;entryY=1;entryDx=0;entryDy=0;exitX=0.5;exitY=0;exitDx=0;exitDy=0;" edge="1" parent="1" source="11" target="9">
                    <mxGeometry relative="1" as="geometry">
                        <mxPoint x="620" y="500" as="sourcePoint"/>
                        <mxPoint x="710" y="460" as="targetPoint"/>
                    </mxGeometry>
                </mxCell>
                <mxCell id="21" style="edgeStyle=elbowEdgeStyle;jumpStyle=none;html=1;exitX=1;exitY=0.5;exitDx=0;exitDy=0;entryX=0;entryY=0.5;entryDx=0;entryDy=0;strokeColor=default;dashed=1;" edge="1" parent="1" source="3" target="7">
                    <mxGeometry relative="1" as="geometry"/>
                </mxCell>
                <mxCell id="24" style="edgeStyle=elbowEdgeStyle;jumpStyle=none;html=1;exitX=1;exitY=0.5;exitDx=0;exitDy=0;dashed=1;strokeColor=default;" edge="1" parent="1" source="3">
                    <mxGeometry relative="1" as="geometry">
                        <mxPoint x="470" y="530" as="targetPoint"/>
                        <Array as="points">
                            <mxPoint x="470" y="350"/>
                        </Array>
                    </mxGeometry>
                </mxCell>
                <mxCell id="25" style="edgeStyle=elbowEdgeStyle;jumpStyle=none;html=1;entryX=0.5;entryY=1;entryDx=0;entryDy=0;strokeColor=default;dashed=1;" edge="1" parent="1" source="bwSSeVmjy1r_vaOKLsch-8" target="11">
                    <mxGeometry relative="1" as="geometry">
                        <mxPoint x="410" y="338" as="sourcePoint"/>
                        <mxPoint x="550" y="265" as="targetPoint"/>
                        <Array as="points">
                            <mxPoint x="520" y="630"/>
                            <mxPoint x="940" y="650"/>
                            <mxPoint x="890" y="640"/>
                            <mxPoint x="800" y="590"/>
                            <mxPoint x="970" y="590"/>
                            <mxPoint x="600" y="620"/>
                            <mxPoint x="230" y="440"/>
                            <mxPoint x="450" y="620"/>
                        </Array>
                    </mxGeometry>
                </mxCell>
                <mxCell id="28" style="edgeStyle=elbowEdgeStyle;jumpStyle=none;html=1;entryX=0.5;entryY=1;entryDx=0;entryDy=0;strokeColor=none;dashed=1;" edge="1" parent="1" target="8">
                    <mxGeometry relative="1" as="geometry">
                        <mxPoint x="130" y="360" as="sourcePoint"/>
                        <mxPoint x="850" y="570" as="targetPoint"/>
                        <Array as="points">
                            <mxPoint x="840" y="370"/>
                            <mxPoint x="730" y="530"/>
                            <mxPoint x="530" y="640"/>
                            <mxPoint x="950" y="660"/>
                            <mxPoint x="900" y="650"/>
                            <mxPoint x="810" y="600"/>
                            <mxPoint x="980" y="600"/>
                            <mxPoint x="610" y="630"/>
                            <mxPoint x="240" y="450"/>
                            <mxPoint x="460" y="630"/>
                        </Array>
                    </mxGeometry>
                </mxCell>
                <mxCell id="29" style="edgeStyle=elbowEdgeStyle;jumpStyle=none;html=1;exitX=1;exitY=0.5;exitDx=0;exitDy=0;entryX=0.75;entryY=1;entryDx=0;entryDy=0;dashed=1;strokeColor=default;" edge="1" parent="1" source="bwSSeVmjy1r_vaOKLsch-8" target="8">
                    <mxGeometry relative="1" as="geometry">
                        <Array as="points">
                            <mxPoint x="670" y="700"/>
                            <mxPoint x="540" y="700"/>
                        </Array>
                    </mxGeometry>
                </mxCell>
            </root>
        </mxGraphModel>
    </diagram>
</mxfile>